<?xml version="1.0" standalone="no"?>
<!DOCTYPE svg PUBLIC "-//W3C//DTD SVG 20010904//EN"
 "http://www.w3.org/TR/2001/REC-SVG-20010904/DTD/svg10.dtd">
<svg version="1.0" xmlns="http://www.w3.org/2000/svg"
 width="1023.000000pt" height="1023.000000pt" viewBox="0 0 1023.000000 1023.000000"
 preserveAspectRatio="xMidYMid meet">
<metadata>
Created by potrace 1.11, written by Peter Selinger 2001-2013
</metadata>
<g transform="translate(0.000000,1023.000000) scale(0.100000,-0.100000)"
fill="#000000" stroke="none">
<path d="M17 6342 c-22 -24 -22 -75 0 -94 11 -10 46 -17 91 -20 80 -6 93 -15
112 -78 6 -22 10 -292 10 -740 l-1 -705 -24 -27 c-20 -23 -35 -28 -92 -34 -71
-7 -103 -24 -103 -56 0 -76 41 -80 712 -76 510 3 548 4 565 21 16 15 18 33 15
135 -2 64 -8 131 -14 148 -15 41 -59 59 -98 39 -32 -17 -40 -33 -40 -83 0 -38
-23 -82 -56 -107 -29 -22 -580 -21 -609 1 -19 14 -20 28 -23 454 -3 431 -2
440 18 460 19 19 32 20 243 20 256 0 252 1 264 -85 10 -80 67 -111 115 -63 25
25 27 51 8 136 -11 50 -12 79 -2 153 9 78 9 96 -4 121 -14 26 -19 29 -57 26
-41 -3 -42 -4 -53 -49 -7 -26 -20 -58 -29 -73 l-17 -26 -223 0 c-213 0 -223 1
-241 21 -17 19 -19 41 -22 218 -4 188 -3 197 18 224 l21 27 228 0 c261 0 238
8 293 -101 24 -47 41 -67 61 -74 50 -17 62 0 65 101 3 93 -9 157 -36 187 -14
16 -53 17 -547 17 -503 0 -533 -1 -548 -18z"/>
<path d="M9110 6094 c-157 -28 -331 -110 -483 -228 -28 -21 -25 -85 3 -108 36
-29 40 -27 125 50 17 16 53 43 80 62 28 19 52 37 55 40 13 15 173 90 235 111
61 21 89 24 215 24 126 0 155 -3 220 -24 69 -22 132 -49 170 -72 46 -27 90
-46 90 -38 0 5 -8 13 -17 16 -10 4 -38 21 -63 37 -83 57 -213 113 -279 122
-19 3 -51 8 -71 13 -56 13 -195 10 -280 -5z"/>
<path d="M6605 6083 c-56 -6 -217 -42 -230 -52 -5 -5 -21 -12 -35 -16 -14 -4
-44 -18 -67 -32 -47 -27 -47 -24 0 -140 l20 -52 56 28 c113 58 148 66 271 66
99 -1 121 -4 155 -22 56 -31 83 -63 106 -127 23 -67 23 -87 1 -148 -33 -89
-82 -132 -201 -175 -52 -18 -85 -23 -168 -23 l-103 0 0 -85 0 -85 91 0 c162 0
286 -39 363 -115 68 -66 86 -110 86 -204 0 -67 -4 -90 -25 -129 -25 -47 -80
-106 -122 -129 -39 -22 -140 -43 -206 -43 -100 0 -184 20 -334 81 l-32 13 0
88 c0 78 -3 94 -25 131 -29 47 -54 77 -78 92 -9 6 -37 25 -62 43 -26 17 -51
32 -57 32 -5 0 -19 9 -31 20 -12 11 -28 20 -36 20 -15 0 -84 46 -119 79 -38
36 -31 75 21 111 53 36 85 37 152 6 49 -23 94 -76 94 -112 0 -22 38 -54 65
-54 40 0 56 52 46 144 -9 77 -15 96 -33 96 -5 0 -22 8 -36 18 -34 23 -155 52
-219 52 -70 0 -184 -32 -226 -64 -19 -15 -47 -44 -61 -66 -22 -34 -26 -51 -26
-113 0 -66 3 -77 36 -127 20 -30 40 -57 45 -58 5 -2 15 -10 23 -17 13 -14 168
-95 180 -95 19 0 88 -57 111 -92 22 -32 26 -49 22 -79 -18 -132 -186 -175
-272 -70 -23 29 -59 103 -68 143 -8 32 -42 45 -84 31 l-28 -10 1 -110 c1 -86
5 -116 19 -137 10 -14 22 -26 27 -26 5 0 22 -8 36 -18 38 -27 150 -52 228 -52
64 0 156 20 199 43 11 6 29 15 40 21 25 14 65 52 87 85 24 35 23 13 -2 -44
-26 -61 -26 -89 3 -102 105 -50 135 -59 252 -84 22 -4 90 -8 150 -9 171 0 300
41 428 138 26 20 47 42 47 49 0 7 4 13 9 13 14 0 52 69 78 140 28 78 31 202 7
265 -9 22 -18 50 -21 62 -3 12 -14 30 -24 39 -10 9 -19 21 -19 26 0 5 -20 29
-45 53 -40 39 -94 70 -188 110 l-27 11 22 11 c13 6 36 17 53 24 46 22 138 119
165 174 22 45 25 63 25 170 -1 112 -3 124 -29 173 -34 65 -78 110 -142 146
-83 47 -238 78 -339 69z"/>
<path d="M8300 6080 c-152 -15 -313 -54 -371 -91 -13 -8 -39 -21 -56 -28 -18
-8 -33 -17 -33 -22 0 -5 -5 -9 -11 -9 -17 0 -143 -105 -174 -146 -16 -22 -33
-40 -37 -42 -4 -2 -8 -9 -8 -17 0 -7 -7 -18 -15 -25 -8 -7 -21 -24 -28 -39 -7
-14 -18 -35 -25 -46 -95 -171 -143 -485 -104 -685 18 -90 53 -200 74 -232 10
-14 18 -31 18 -37 0 -14 156 -171 170 -171 6 0 23 -8 37 -17 125 -82 396 -83
515 -1 14 10 30 18 36 18 13 0 142 124 142 138 0 5 4 12 8 14 17 6 65 115 83
188 24 96 24 214 0 307 -21 79 -54 155 -77 173 -7 7 -14 16 -14 21 0 5 -14 22
-31 37 -17 15 -38 35 -47 45 -9 9 -20 17 -25 17 -5 0 -21 8 -35 18 -85 58
-285 75 -399 35 -91 -33 -138 -60 -190 -110 -37 -37 -45 -41 -39 -22 3 13 13
47 20 74 30 104 97 211 184 292 32 29 60 53 64 53 4 0 13 6 20 13 7 7 33 23
58 34 92 44 162 62 265 69 l105 7 0 98 c0 55 -1 98 -2 97 -2 0 -37 -4 -78 -8z
m-191 -771 c63 -20 140 -100 169 -175 33 -85 33 -258 1 -336 -12 -29 -28 -60
-36 -69 -7 -8 -13 -19 -13 -22 0 -6 -41 -47 -73 -72 -26 -21 -114 -45 -165
-45 -77 0 -177 45 -226 102 -70 82 -106 189 -107 319 0 79 3 102 21 137 12 23
26 42 30 42 5 0 11 8 14 18 4 10 24 29 46 43 22 13 40 27 40 31 0 7 113 45
150 50 32 4 93 -5 149 -23z"/>
<path d="M9460 6003 c0 -5 -43 -7 -95 -5 -62 2 -115 -2 -155 -12 -34 -9 -70
-16 -79 -16 -10 0 -53 -18 -96 -40 -43 -22 -89 -40 -102 -40 -27 0 -176 -142
-209 -197 -10 -18 -22 -33 -26 -33 -4 0 -8 -9 -8 -20 0 -11 -4 -20 -9 -20 -19
0 -63 -138 -76 -235 -23 -180 10 -371 84 -491 17 -27 35 -59 41 -71 5 -13 14
-23 20 -23 6 0 14 -8 17 -17 12 -32 97 -103 122 -103 13 0 29 -6 35 -14 18
-22 135 -81 211 -105 119 -39 376 -45 451 -11 23 11 49 20 56 20 7 0 24 9 38
20 14 11 33 20 43 20 9 0 17 3 17 8 0 4 17 16 37 27 116 62 269 278 277 392 2
26 9 68 16 93 27 95 2 329 -45 419 -16 32 -17 81 -1 75 21 -8 98 -151 124
-229 36 -106 49 -235 32 -310 -5 -22 -12 -55 -15 -74 -6 -36 -83 -194 -97
-199 -5 -2 -16 -18 -24 -35 l-17 -32 27 25 c56 51 125 169 155 265 20 62 22
87 18 220 -4 158 -13 215 -47 292 -61 138 -86 172 -126 173 -25 0 -53 -29 -49
-52 4 -23 -20 -12 -32 15 -21 45 -96 127 -156 172 -34 25 -66 49 -72 53 -21
16 -122 60 -185 81 -67 22 -100 26 -100 14z m-50 -185 c0 -5 12 -8 26 -8 14 0
46 -9 72 -19 26 -10 62 -24 80 -31 17 -7 32 -16 32 -21 0 -5 7 -9 16 -9 8 0
51 -36 95 -79 43 -44 79 -87 79 -95 0 -9 4 -16 9 -16 5 0 14 -15 22 -32 7 -18
20 -43 30 -55 19 -26 43 -165 36 -214 -14 -102 -73 -246 -125 -307 -61 -71
-101 -107 -134 -123 -16 -7 -28 -16 -28 -20 0 -4 -17 -13 -37 -20 -21 -6 -43
-16 -49 -21 -7 -5 -54 -15 -105 -24 -52 -8 -103 -16 -114 -18 -52 -9 -265 65
-265 92 0 6 -4 12 -8 12 -15 0 -126 114 -158 161 -16 24 -41 73 -54 109 -22
57 -25 80 -24 195 0 113 3 135 22 172 12 23 22 47 22 52 0 36 167 222 212 237
10 3 18 10 18 15 0 14 108 59 165 67 63 10 165 9 165 0z"/>
<path d="M5078 5929 c-15 -8 -18 -24 -18 -87 -1 -133 -32 -293 -65 -326 -8 -8
-15 -18 -15 -22 0 -16 -55 -56 -108 -78 -52 -22 -57 -27 -60 -58 -4 -50 7 -58
86 -65 l72 -6 0 -271 c0 -316 8 -384 47 -441 37 -53 104 -88 158 -82 74 8 161
59 238 142 86 92 -1 159 -96 74 -10 -9 -36 -22 -58 -29 -76 -25 -74 -33 -77
305 -2 232 1 300 10 307 7 4 61 8 120 8 102 0 108 1 123 24 16 23 11 54 -9 68
-6 4 -57 8 -113 8 -56 0 -108 3 -117 6 -14 5 -16 35 -16 234 0 134 -4 239 -11
258 -13 38 -55 53 -91 31z"/>
<path d="M2870 5435 c-112 -25 -272 -132 -328 -220 -50 -80 -77 -184 -68 -259
26 -211 161 -377 363 -445 87 -29 230 -29 327 1 103 31 193 77 227 115 32 37
34 45 19 74 -15 28 -57 24 -126 -12 -152 -79 -306 -77 -425 7 -94 65 -139 128
-159 222 -15 72 -1 167 32 214 10 14 18 32 18 38 0 7 26 38 58 69 93 90 207
116 322 75 98 -35 177 -146 168 -236 l-3 -33 -245 -5 -244 -5 -15 -26 c-19
-34 -9 -57 34 -74 51 -22 620 -22 672 0 l36 15 -7 87 c-5 53 -16 108 -29 138
-41 96 -126 184 -222 229 -87 41 -290 57 -405 31z"/>
<path d="M2036 5409 c-22 -17 -27 -28 -24 -58 3 -32 7 -37 42 -49 22 -7 46
-18 53 -24 19 -15 16 -64 -6 -107 -17 -34 -67 -139 -122 -256 -12 -27 -30 -63
-40 -78 l-17 -29 -32 69 c-18 37 -36 76 -41 86 -5 9 -13 26 -19 37 -5 11 -14
29 -20 40 -16 31 -25 52 -47 100 -12 25 -28 60 -37 79 -9 19 -16 38 -16 42 0
13 56 39 83 39 32 0 47 18 47 55 0 48 -31 60 -127 49 -94 -11 -221 -10 -324 1
-93 10 -119 -1 -119 -48 0 -42 15 -57 59 -57 60 0 149 -52 177 -105 35 -67 71
-136 84 -165 4 -8 12 -24 17 -35 6 -11 37 -74 68 -140 155 -325 177 -365 209
-365 16 0 56 42 56 58 0 10 27 69 81 175 17 33 26 52 52 107 204 443 211 454
312 470 79 13 97 25 93 62 -2 19 -13 38 -29 51 -26 19 -28 19 -85 2 -73 -22
-185 -22 -243 -1 -55 20 -53 20 -85 -5z"/>
<path d="M4290 5413 c-60 -20 -120 -47 -120 -54 0 -5 -5 -9 -12 -9 -12 0 -18
-5 -95 -82 -55 -54 -60 -66 -43 -99 20 -37 99 -14 155 45 21 22 74 46 103 46
21 0 37 -8 52 -27 21 -27 21 -32 15 -278 -4 -137 -11 -262 -16 -276 -10 -25
-60 -49 -103 -49 -25 0 -42 -44 -28 -74 13 -30 43 -35 129 -23 37 5 127 7 198
5 72 -3 136 -3 143 -1 7 3 12 21 12 44 0 30 -4 39 -17 39 -10 0 -37 8 -60 18
l-43 17 0 291 c0 249 -3 300 -17 345 -22 67 -37 85 -90 110 -40 18 -126 25
-163 12z"/>
<path d="M3652 5389 c-16 -6 -22 -17 -22 -37 0 -35 11 -44 65 -60 23 -6 51
-21 63 -32 22 -20 22 -25 22 -286 0 -250 -1 -268 -20 -294 -14 -20 -32 -30
-63 -35 -55 -9 -67 -20 -67 -60 0 -52 17 -59 128 -50 117 9 120 9 252 0 117
-9 134 -2 128 51 -3 23 -12 30 -68 51 -36 13 -71 31 -77 40 -10 13 -12 83 -7
307 3 160 2 318 -3 351 l-8 60 -150 1 c-83 1 -161 -3 -173 -7z"/>
<path d="M8661 4845 c-1 -12 37 -86 71 -140 66 -105 191 -209 300 -252 24 -9
48 -20 54 -24 6 -5 28 -11 50 -15 21 -3 68 -11 104 -18 55 -11 134 -13 226 -7
12 0 31 9 42 20 44 37 16 96 -42 87 -160 -25 -223 -25 -369 -1 -83 14 -228 95
-290 163 -18 19 -39 42 -47 51 -13 14 -34 45 -87 127 -6 11 -12 15 -12 9z"/>
<path d="M9985 4710 c-10 -11 -14 -20 -9 -20 5 0 15 9 22 20 7 11 11 20 9 20
-2 0 -12 -9 -22 -20z"/>
<path d="M100 4029 l0 -171 95 4 c110 5 136 18 173 89 45 86 13 203 -64 235
-20 8 -69 14 -119 14 l-85 0 0 -171z m181 114 c52 -31 70 -122 37 -186 -16
-32 -70 -57 -120 -57 l-48 0 0 130 0 130 51 0 c30 0 63 -7 80 -17z"/>
<path d="M1150 4176 c0 -30 13 -40 41 -31 31 10 21 49 -13 53 -24 3 -28 0 -28
-22z"/>
<path d="M2312 4177 c-24 -25 -29 -75 -11 -109 9 -16 7 -23 -9 -34 -33 -23
-46 -76 -28 -117 8 -20 23 -40 34 -46 29 -16 98 -14 132 4 25 13 29 13 34 0 3
-10 19 -15 43 -15 l37 0 -27 28 c-26 27 -27 29 -12 60 9 17 19 48 22 68 5 33
4 36 -18 32 -17 -2 -25 -11 -30 -36 -11 -54 -23 -57 -58 -16 l-32 36 30 30
c37 36 43 94 13 121 -28 26 -94 22 -120 -6z m94 -39 c5 -18 -28 -68 -46 -68
-15 0 -30 51 -20 70 18 34 54 33 66 -2z m-22 -168 c43 -47 44 -58 11 -66 -62
-15 -107 28 -83 81 16 34 30 31 72 -15z"/>
<path d="M2877 4143 c-4 -32 -9 -109 -13 -170 l-7 -113 27 0 c24 0 26 3 26 48
0 27 3 85 7 128 l6 79 42 -125 c34 -102 45 -126 62 -128 22 -3 23 -2 89 183
l29 80 6 -120 c4 -66 7 -126 8 -132 0 -7 13 -13 27 -13 26 0 26 1 21 53 -4 28
-9 105 -13 170 l-6 117 -33 0 c-33 0 -33 0 -74 -116 -23 -63 -41 -120 -41
-127 0 -27 -19 16 -55 126 -39 116 -40 117 -71 117 -31 0 -32 -1 -37 -57z"/>
<path d="M6313 4173 c-7 -2 -13 -18 -13 -34 0 -19 -5 -29 -15 -29 -8 0 -15 -9
-15 -20 0 -11 6 -20 14 -20 10 0 15 -22 18 -89 5 -104 15 -121 69 -121 32 0
39 3 39 20 0 13 -7 20 -20 20 -28 0 -40 30 -40 104 l0 66 35 0 c28 0 35 4 35
20 0 16 -7 20 -35 20 -33 0 -35 2 -35 35 0 34 -8 40 -37 28z"/>
<path d="M547 4086 c-35 -33 -52 -99 -38 -148 17 -54 52 -78 117 -78 64 0 84
7 84 30 0 15 -7 16 -50 12 -56 -5 -94 12 -103 47 -5 20 -1 21 84 21 97 0 96
-1 78 63 -15 55 -44 77 -99 77 -36 0 -53 -6 -73 -24z m110 -28 c31 -40 25 -48
-37 -48 -64 0 -73 9 -43 42 18 21 66 24 80 6z"/>
<path d="M887 4099 c-26 -15 -38 -54 -27 -84 6 -17 26 -33 56 -45 37 -16 45
-24 42 -42 -3 -20 -9 -23 -53 -23 -43 0 -50 -3 -50 -20 0 -17 8 -20 53 -23 73
-4 102 15 102 68 0 30 -6 43 -26 59 -15 12 -33 21 -40 21 -7 0 -20 7 -29 16
-25 25 0 47 46 41 30 -4 38 -1 42 13 3 11 -2 21 -10 24 -24 9 -87 6 -106 -5z"/>
<path d="M1150 3985 l0 -125 25 0 25 0 0 125 0 125 -25 0 -25 0 0 -125z"/>
<path d="M1373 4075 c-35 -35 -35 -37 -31 -102 4 -57 8 -69 32 -89 30 -26 103
-33 124 -12 19 19 26 1 12 -32 -14 -35 -43 -45 -101 -36 -31 5 -41 3 -46 -10
-9 -24 15 -34 79 -34 50 0 62 4 90 29 l33 29 3 146 4 146 -26 0 c-14 0 -26 -5
-26 -10 0 -7 -6 -7 -19 0 -11 5 -36 10 -56 10 -29 0 -45 -8 -72 -35z m113 -13
c49 -33 41 -145 -12 -158 -49 -13 -84 23 -84 85 0 55 58 99 96 73z"/>
<path d="M1710 3985 l0 -125 25 0 c25 0 25 1 25 79 0 69 3 84 23 107 19 22 29
26 51 20 35 -9 46 -40 46 -132 0 -72 1 -74 25 -74 25 0 25 1 25 84 0 92 -13
141 -40 156 -26 14 -93 12 -109 -2 -11 -10 -14 -10 -18 0 -3 6 -16 12 -29 12
l-24 0 0 -125z"/>
<path d="M3368 4103 c-19 -5 -23 -20 -10 -40 5 -8 13 -9 22 -3 21 14 74 12 88
-2 7 -7 12 -20 12 -30 0 -14 -8 -18 -35 -18 -90 0 -147 -78 -95 -130 22 -22
88 -27 121 -10 13 7 19 7 19 0 0 -5 10 -10 23 -10 22 0 22 2 19 97 -4 128 -16
147 -93 150 -30 0 -62 -1 -71 -4z m112 -151 c0 -15 -5 -33 -12 -40 -17 -17
-63 -15 -78 3 -22 26 16 57 78 64 7 0 12 -11 12 -27z"/>
<path d="M3680 3985 l0 -125 25 0 c25 0 25 1 25 79 0 69 3 84 23 107 19 22 29
26 51 20 35 -9 46 -40 46 -132 0 -72 1 -74 25 -74 25 0 25 1 25 84 0 92 -13
141 -40 156 -26 14 -93 12 -109 -2 -11 -10 -14 -10 -18 0 -3 6 -16 12 -29 12
l-24 0 0 -125z"/>
<path d="M4068 4103 c-19 -5 -23 -20 -10 -40 5 -8 13 -9 22 -3 21 14 74 12 88
-2 7 -7 12 -20 12 -30 0 -14 -8 -18 -35 -18 -90 0 -147 -78 -95 -130 22 -22
88 -27 121 -10 13 7 19 7 19 0 0 -5 10 -10 23 -10 22 0 22 2 19 97 -4 128 -16
147 -93 150 -30 0 -62 -1 -71 -4z m112 -151 c0 -15 -5 -33 -12 -40 -17 -17
-63 -15 -78 3 -22 26 16 57 78 64 7 0 12 -11 12 -27z"/>
<path d="M4403 4075 c-35 -35 -35 -37 -31 -102 4 -57 8 -69 32 -89 30 -26 103
-33 124 -12 19 19 26 1 12 -32 -14 -35 -43 -45 -101 -36 -31 5 -41 3 -46 -10
-9 -24 15 -34 79 -34 50 0 62 4 90 29 l33 29 3 146 4 146 -26 0 c-14 0 -26 -5
-26 -10 0 -7 -6 -7 -19 0 -11 5 -36 10 -56 10 -29 0 -45 -8 -72 -35z m113 -13
c49 -33 41 -145 -12 -158 -49 -13 -84 23 -84 85 0 55 58 99 96 73z"/>
<path d="M4767 4086 c-35 -33 -52 -99 -38 -148 17 -54 52 -78 117 -78 64 0 84
7 84 30 0 15 -7 16 -50 12 -56 -5 -94 12 -103 47 -5 20 -1 21 84 21 97 0 96
-1 78 63 -15 55 -44 77 -99 77 -36 0 -53 -6 -73 -24z m110 -28 c31 -40 25 -48
-37 -48 -64 0 -73 9 -43 42 18 21 66 24 80 6z"/>
<path d="M5080 3985 l0 -125 25 0 c24 0 25 2 25 75 0 85 13 123 47 131 43 11
53 -10 53 -112 0 -94 0 -94 25 -94 24 0 25 2 25 74 0 92 11 123 45 132 46 11
60 -14 63 -116 4 -87 5 -90 28 -90 23 0 24 2 24 78 0 92 -14 148 -40 162 -28
15 -83 12 -108 -6 -21 -15 -25 -15 -41 0 -20 18 -73 21 -102 6 -13 -7 -19 -7
-19 0 0 5 -11 10 -25 10 l-25 0 0 -125z"/>
<path d="M5617 4086 c-35 -33 -52 -99 -38 -148 17 -54 52 -78 117 -78 64 0 84
7 84 30 0 15 -7 16 -50 12 -56 -5 -94 12 -103 47 -5 20 -1 21 84 21 97 0 96
-1 78 63 -15 55 -44 77 -99 77 -36 0 -53 -6 -73 -24z m110 -28 c31 -40 25 -48
-37 -48 -64 0 -73 9 -43 42 18 21 66 24 80 6z"/>
<path d="M5920 3985 l0 -125 25 0 c25 0 25 1 25 79 0 69 3 84 23 107 19 22 29
26 51 20 35 -9 46 -40 46 -132 0 -72 1 -74 25 -74 25 0 25 1 25 84 0 92 -13
141 -40 156 -26 14 -93 12 -109 -2 -11 -10 -14 -10 -18 0 -3 6 -16 12 -29 12
l-24 0 0 -125z"/>
</g>
</svg>
